# ProBuilder 4.4.0
# https://unity3d.com/unity/features/worldbuilding/probuilder
# 12/9/2022 12:22:37 AM

mtllib ./Circle.mtl
o Circle

g Cylinder
v -45 0 0
v 0 0 0
v -44.13534 0 8.779064
v -41.57458 0 17.22075
v -37.41613 0 25.00066
v -31.81981 0 31.81981
v -25.00066 0 37.41613
v -17.22075 0 41.57458
v -8.779068 0 44.13534
v 3.814697E-06 0 45
v 8.779064 0 44.13534
v 17.22075 0 41.57458
v 25.00066 0 37.41613
v 31.81981 0 31.81981
v 37.41614 0 25.00066
v 41.57458 0 17.22076
v 44.13534 0 8.779064
v 45 0 -3.934025E-06
v 44.13534 0 -8.779061
v 41.57458 0 -17.22075
v 37.41613 0 -25.00066
v 31.81981 0 -31.8198
v 25.00067 0 -37.41613
v 17.22076 0 -41.57458
v 8.779068 0 -44.13534
v 0 0 -45
v -8.779068 0 -44.13534
v -17.22076 0 -41.57457
v -25.00065 0 -37.41614
v -31.8198 0 -31.81981
v -37.41613 0 -25.00066
v -41.57458 0 -17.22075
v -44.13534 0 -8.77906

vt 45 0
vt 0 0
vt 44.13534 8.779064
vt 41.57458 17.22075
vt 37.41613 25.00066
vt 31.81981 31.81981
vt 25.00066 37.41613
vt 17.22075 41.57458
vt 8.779068 44.13534
vt -3.814697E-06 45
vt -8.779064 44.13534
vt -17.22075 41.57458
vt -25.00066 37.41613
vt -31.81981 31.81981
vt -37.41614 25.00066
vt -41.57458 17.22076
vt -44.13534 8.779064
vt -45 -3.934025E-06
vt -44.13534 -8.779061
vt -41.57458 -17.22075
vt -37.41613 -25.00066
vt -31.81981 -31.8198
vt -25.00067 -37.41613
vt -17.22076 -41.57458
vt -8.779068 -44.13534
vt 0 -45
vt 8.779068 -44.13534
vt 17.22076 -41.57457
vt 25.00065 -37.41614
vt 31.8198 -31.81981
vt 37.41613 -25.00066
vt 41.57458 -17.22075
vt 44.13534 -8.77906

vn 0 1 0

usemtl ProBuilderDefault
f 3/3/1 2/2/1 1/1/1
f 4/4/1 2/2/1 3/3/1
f 5/5/1 2/2/1 4/4/1
f 6/6/1 2/2/1 5/5/1
f 7/7/1 2/2/1 6/6/1
f 8/8/1 2/2/1 7/7/1
f 9/9/1 2/2/1 8/8/1
f 10/10/1 2/2/1 9/9/1
f 11/11/1 2/2/1 10/10/1
f 12/12/1 2/2/1 11/11/1
f 13/13/1 2/2/1 12/12/1
f 14/14/1 2/2/1 13/13/1
f 15/15/1 2/2/1 14/14/1
f 16/16/1 2/2/1 15/15/1
f 17/17/1 2/2/1 16/16/1
f 18/18/1 2/2/1 17/17/1
f 19/19/1 2/2/1 18/18/1
f 20/20/1 2/2/1 19/19/1
f 21/21/1 2/2/1 20/20/1
f 22/22/1 2/2/1 21/21/1
f 23/23/1 2/2/1 22/22/1
f 24/24/1 2/2/1 23/23/1
f 25/25/1 2/2/1 24/24/1
f 26/26/1 2/2/1 25/25/1
f 27/27/1 2/2/1 26/26/1
f 28/28/1 2/2/1 27/27/1
f 29/29/1 2/2/1 28/28/1
f 30/30/1 2/2/1 29/29/1
f 31/31/1 2/2/1 30/30/1
f 32/32/1 2/2/1 31/31/1
f 33/33/1 2/2/1 32/32/1
f 1/1/1 2/2/1 33/33/1

